<mxfile host="app.diagrams.net" agent="Mozilla/5.0 (Windows NT 10.0; Win64; x64) AppleWebKit/537.36 (KHTML, like Gecko) Chrome/134.0.0.0 Safari/537.36" version="26.1.0" pages="2">
  <diagram name="Page-1" id="2robz4_BGBvfKvqollEL">
    <mxGraphModel dx="2234" dy="826" grid="1" gridSize="10" guides="1" tooltips="1" connect="1" arrows="1" fold="1" page="0" pageScale="1" pageWidth="850" pageHeight="1100" math="0" shadow="0">
      <root>
        <mxCell id="0" />
        <mxCell id="1" parent="0" />
        <mxCell id="_r3g6rlvjKkUjJMqAIaU-24" value="" style="rounded=1;whiteSpace=wrap;html=1;dashed=1;fillColor=none;" vertex="1" parent="1">
          <mxGeometry x="-470" y="200" width="400" height="570" as="geometry" />
        </mxCell>
        <mxCell id="oOiWM4VNdD_S-7e1pvhl-3" value="" style="rounded=1;whiteSpace=wrap;html=1;dashed=1;fillColor=none;" parent="1" vertex="1">
          <mxGeometry x="10" y="200" width="820" height="570" as="geometry" />
        </mxCell>
        <mxCell id="l0F_Z9eBLeVLv1C7WEuF-8" value="" style="rounded=0;whiteSpace=wrap;html=1;fillColor=none;strokeColor=#b85450;dashed=1;" vertex="1" parent="1">
          <mxGeometry x="20" y="290" width="310" height="360" as="geometry" />
        </mxCell>
        <mxCell id="oOiWM4VNdD_S-7e1pvhl-6" value="" style="edgeStyle=orthogonalEdgeStyle;rounded=0;orthogonalLoop=1;jettySize=auto;html=1;" parent="1" source="oOiWM4VNdD_S-7e1pvhl-2" target="oOiWM4VNdD_S-7e1pvhl-5" edge="1">
          <mxGeometry relative="1" as="geometry" />
        </mxCell>
        <mxCell id="oOiWM4VNdD_S-7e1pvhl-8" value="" style="edgeStyle=orthogonalEdgeStyle;rounded=0;orthogonalLoop=1;jettySize=auto;html=1;" parent="1" source="oOiWM4VNdD_S-7e1pvhl-2" target="oOiWM4VNdD_S-7e1pvhl-7" edge="1">
          <mxGeometry relative="1" as="geometry" />
        </mxCell>
        <mxCell id="l0F_Z9eBLeVLv1C7WEuF-1" style="edgeStyle=orthogonalEdgeStyle;rounded=0;orthogonalLoop=1;jettySize=auto;html=1;exitX=0.5;exitY=0;exitDx=0;exitDy=0;" edge="1" parent="1" source="oOiWM4VNdD_S-7e1pvhl-2">
          <mxGeometry relative="1" as="geometry">
            <mxPoint x="420" y="120" as="targetPoint" />
          </mxGeometry>
        </mxCell>
        <mxCell id="l0F_Z9eBLeVLv1C7WEuF-2" value="ResponseDto" style="edgeLabel;html=1;align=center;verticalAlign=middle;resizable=0;points=[];" vertex="1" connectable="0" parent="l0F_Z9eBLeVLv1C7WEuF-1">
          <mxGeometry x="0.2124" y="-2" relative="1" as="geometry">
            <mxPoint as="offset" />
          </mxGeometry>
        </mxCell>
        <mxCell id="l0F_Z9eBLeVLv1C7WEuF-3" style="edgeStyle=orthogonalEdgeStyle;rounded=0;orthogonalLoop=1;jettySize=auto;html=1;entryX=0.75;entryY=0;entryDx=0;entryDy=0;" edge="1" parent="1" target="oOiWM4VNdD_S-7e1pvhl-2">
          <mxGeometry relative="1" as="geometry">
            <mxPoint x="620" y="120" as="targetPoint" />
            <mxPoint x="610" y="120" as="sourcePoint" />
          </mxGeometry>
        </mxCell>
        <mxCell id="l0F_Z9eBLeVLv1C7WEuF-4" value="RequestDto" style="edgeLabel;html=1;align=center;verticalAlign=middle;resizable=0;points=[];" vertex="1" connectable="0" parent="l0F_Z9eBLeVLv1C7WEuF-3">
          <mxGeometry x="-0.2213" y="3" relative="1" as="geometry">
            <mxPoint as="offset" />
          </mxGeometry>
        </mxCell>
        <mxCell id="oOiWM4VNdD_S-7e1pvhl-2" value="WebApi&lt;br&gt;(REPR Pattern?)" style="rounded=0;whiteSpace=wrap;html=1;fillColor=#d5e8d4;strokeColor=#82b366;" parent="1" vertex="1">
          <mxGeometry x="40" y="230" width="760" height="50" as="geometry" />
        </mxCell>
        <mxCell id="oOiWM4VNdD_S-7e1pvhl-15" value="" style="edgeStyle=orthogonalEdgeStyle;rounded=0;orthogonalLoop=1;jettySize=auto;html=1;" parent="1" source="oOiWM4VNdD_S-7e1pvhl-5" target="oOiWM4VNdD_S-7e1pvhl-14" edge="1">
          <mxGeometry relative="1" as="geometry" />
        </mxCell>
        <mxCell id="oOiWM4VNdD_S-7e1pvhl-16" value="" style="edgeStyle=orthogonalEdgeStyle;rounded=0;orthogonalLoop=1;jettySize=auto;html=1;" parent="1" source="oOiWM4VNdD_S-7e1pvhl-5" target="oOiWM4VNdD_S-7e1pvhl-14" edge="1">
          <mxGeometry relative="1" as="geometry" />
        </mxCell>
        <mxCell id="oOiWM4VNdD_S-7e1pvhl-17" value="" style="edgeStyle=orthogonalEdgeStyle;rounded=0;orthogonalLoop=1;jettySize=auto;html=1;" parent="1" source="oOiWM4VNdD_S-7e1pvhl-5" target="oOiWM4VNdD_S-7e1pvhl-14" edge="1">
          <mxGeometry relative="1" as="geometry" />
        </mxCell>
        <mxCell id="oOiWM4VNdD_S-7e1pvhl-5" value="Core.App" style="whiteSpace=wrap;html=1;fillColor=#d5e8d4;strokeColor=#82b366;rounded=0;" parent="1" vertex="1">
          <mxGeometry x="640" y="320" width="120" height="60" as="geometry" />
        </mxCell>
        <mxCell id="oOiWM4VNdD_S-7e1pvhl-10" value="" style="edgeStyle=orthogonalEdgeStyle;rounded=0;orthogonalLoop=1;jettySize=auto;html=1;" parent="1" source="oOiWM4VNdD_S-7e1pvhl-7" target="oOiWM4VNdD_S-7e1pvhl-9" edge="1">
          <mxGeometry relative="1" as="geometry" />
        </mxCell>
        <mxCell id="oOiWM4VNdD_S-7e1pvhl-12" value="" style="edgeStyle=orthogonalEdgeStyle;rounded=0;orthogonalLoop=1;jettySize=auto;html=1;" parent="1" source="oOiWM4VNdD_S-7e1pvhl-7" target="oOiWM4VNdD_S-7e1pvhl-11" edge="1">
          <mxGeometry relative="1" as="geometry" />
        </mxCell>
        <mxCell id="oOiWM4VNdD_S-7e1pvhl-7" value="Domain1.App" style="whiteSpace=wrap;html=1;fillColor=#d5e8d4;strokeColor=#82b366;rounded=0;" parent="1" vertex="1">
          <mxGeometry x="80" y="320" width="120" height="60" as="geometry" />
        </mxCell>
        <mxCell id="oOiWM4VNdD_S-7e1pvhl-28" value="" style="edgeStyle=orthogonalEdgeStyle;rounded=0;orthogonalLoop=1;jettySize=auto;html=1;entryX=0;entryY=0.5;entryDx=0;entryDy=0;" parent="1" source="oOiWM4VNdD_S-7e1pvhl-9" target="oOiWM4VNdD_S-7e1pvhl-27" edge="1">
          <mxGeometry relative="1" as="geometry" />
        </mxCell>
        <mxCell id="l0F_Z9eBLeVLv1C7WEuF-11" style="edgeStyle=orthogonalEdgeStyle;rounded=0;orthogonalLoop=1;jettySize=auto;html=1;" edge="1" parent="1" source="oOiWM4VNdD_S-7e1pvhl-9" target="l0F_Z9eBLeVLv1C7WEuF-9">
          <mxGeometry relative="1" as="geometry" />
        </mxCell>
        <mxCell id="l0F_Z9eBLeVLv1C7WEuF-15" value="" style="edgeStyle=orthogonalEdgeStyle;rounded=0;orthogonalLoop=1;jettySize=auto;html=1;" edge="1" parent="1" source="oOiWM4VNdD_S-7e1pvhl-11" target="l0F_Z9eBLeVLv1C7WEuF-14">
          <mxGeometry relative="1" as="geometry">
            <Array as="points">
              <mxPoint x="100" y="640" />
            </Array>
          </mxGeometry>
        </mxCell>
        <mxCell id="_r3g6rlvjKkUjJMqAIaU-26" style="edgeStyle=orthogonalEdgeStyle;rounded=1;orthogonalLoop=1;jettySize=auto;html=1;exitX=0.5;exitY=1;exitDx=0;exitDy=0;entryX=0.5;entryY=0;entryDx=0;entryDy=0;curved=0;strokeColor=#7F00FF;strokeWidth=3;" edge="1" parent="1" source="oOiWM4VNdD_S-7e1pvhl-9" target="_r3g6rlvjKkUjJMqAIaU-22">
          <mxGeometry relative="1" as="geometry">
            <mxPoint x="-40" y="408" as="targetPoint" />
            <Array as="points">
              <mxPoint x="260" y="520" />
              <mxPoint x="-30" y="520" />
              <mxPoint x="-30" y="150" />
              <mxPoint x="-280" y="150" />
            </Array>
          </mxGeometry>
        </mxCell>
        <mxCell id="_r3g6rlvjKkUjJMqAIaU-27" value="RequestDTO / Response DTO" style="edgeLabel;html=1;align=center;verticalAlign=middle;resizable=0;points=[];" vertex="1" connectable="0" parent="_r3g6rlvjKkUjJMqAIaU-26">
          <mxGeometry x="0.903" y="1" relative="1" as="geometry">
            <mxPoint as="offset" />
          </mxGeometry>
        </mxCell>
        <mxCell id="oOiWM4VNdD_S-7e1pvhl-9" value="Domain1.&lt;br&gt;Infrastructure" style="whiteSpace=wrap;html=1;fillColor=#d5e8d4;strokeColor=#82b366;rounded=0;" parent="1" vertex="1">
          <mxGeometry x="200" y="440" width="120" height="60" as="geometry" />
        </mxCell>
        <mxCell id="oOiWM4VNdD_S-7e1pvhl-11" value="Domain1.&lt;br&gt;Domain" style="whiteSpace=wrap;html=1;fillColor=#d5e8d4;strokeColor=#82b366;rounded=0;" parent="1" vertex="1">
          <mxGeometry x="40" y="440" width="120" height="60" as="geometry" />
        </mxCell>
        <mxCell id="oOiWM4VNdD_S-7e1pvhl-13" value="" style="endArrow=classic;html=1;rounded=0;entryX=1;entryY=0.5;entryDx=0;entryDy=0;" parent="1" source="oOiWM4VNdD_S-7e1pvhl-9" target="oOiWM4VNdD_S-7e1pvhl-11" edge="1">
          <mxGeometry width="50" height="50" relative="1" as="geometry">
            <mxPoint x="360" y="410" as="sourcePoint" />
            <mxPoint x="410" y="360" as="targetPoint" />
          </mxGeometry>
        </mxCell>
        <mxCell id="oOiWM4VNdD_S-7e1pvhl-29" style="edgeStyle=orthogonalEdgeStyle;rounded=0;orthogonalLoop=1;jettySize=auto;html=1;entryX=1;entryY=0.5;entryDx=0;entryDy=0;" parent="1" source="oOiWM4VNdD_S-7e1pvhl-14" target="oOiWM4VNdD_S-7e1pvhl-27" edge="1">
          <mxGeometry relative="1" as="geometry" />
        </mxCell>
        <mxCell id="l0F_Z9eBLeVLv1C7WEuF-5" style="edgeStyle=orthogonalEdgeStyle;rounded=0;orthogonalLoop=1;jettySize=auto;html=1;entryX=0.5;entryY=0;entryDx=0;entryDy=0;entryPerimeter=0;exitX=0.75;exitY=1;exitDx=0;exitDy=0;" edge="1" parent="1" source="oOiWM4VNdD_S-7e1pvhl-14" target="l0F_Z9eBLeVLv1C7WEuF-6">
          <mxGeometry relative="1" as="geometry">
            <mxPoint x="580" y="820" as="targetPoint" />
          </mxGeometry>
        </mxCell>
        <mxCell id="l0F_Z9eBLeVLv1C7WEuF-7" value="DataModelDto" style="edgeLabel;html=1;align=center;verticalAlign=middle;resizable=0;points=[];" vertex="1" connectable="0" parent="l0F_Z9eBLeVLv1C7WEuF-5">
          <mxGeometry x="0.3333" y="2" relative="1" as="geometry">
            <mxPoint as="offset" />
          </mxGeometry>
        </mxCell>
        <mxCell id="oOiWM4VNdD_S-7e1pvhl-14" value="Core.Infrastructure" style="whiteSpace=wrap;html=1;fillColor=#d5e8d4;strokeColor=#82b366;rounded=0;" parent="1" vertex="1">
          <mxGeometry x="520" y="440" width="120" height="60" as="geometry" />
        </mxCell>
        <mxCell id="_r3g6rlvjKkUjJMqAIaU-25" style="edgeStyle=orthogonalEdgeStyle;rounded=0;orthogonalLoop=1;jettySize=auto;html=1;exitX=0.5;exitY=1;exitDx=0;exitDy=0;entryX=1;entryY=0.5;entryDx=0;entryDy=0;" edge="1" parent="1" source="oOiWM4VNdD_S-7e1pvhl-18" target="l0F_Z9eBLeVLv1C7WEuF-14">
          <mxGeometry relative="1" as="geometry" />
        </mxCell>
        <mxCell id="oOiWM4VNdD_S-7e1pvhl-18" value="Core.Domain" style="whiteSpace=wrap;html=1;fillColor=#d5e8d4;strokeColor=#82b366;rounded=0;" parent="1" vertex="1">
          <mxGeometry x="680" y="440" width="120" height="60" as="geometry" />
        </mxCell>
        <mxCell id="oOiWM4VNdD_S-7e1pvhl-20" value="" style="endArrow=classic;html=1;rounded=0;exitX=1;exitY=0.5;exitDx=0;exitDy=0;" parent="1" source="oOiWM4VNdD_S-7e1pvhl-14" target="oOiWM4VNdD_S-7e1pvhl-18" edge="1">
          <mxGeometry width="50" height="50" relative="1" as="geometry">
            <mxPoint x="580" y="580" as="sourcePoint" />
            <mxPoint x="630" y="530" as="targetPoint" />
          </mxGeometry>
        </mxCell>
        <mxCell id="oOiWM4VNdD_S-7e1pvhl-27" value="Contracts.Internal" style="whiteSpace=wrap;html=1;fillColor=#d5e8d4;strokeColor=#82b366;rounded=0;" parent="1" vertex="1">
          <mxGeometry x="360" y="510" width="120" height="60" as="geometry" />
        </mxCell>
        <mxCell id="l0F_Z9eBLeVLv1C7WEuF-6" value="" style="shape=cylinder3;whiteSpace=wrap;html=1;boundedLbl=1;backgroundOutline=1;size=15;" vertex="1" parent="1">
          <mxGeometry x="580" y="790" width="60" height="80" as="geometry" />
        </mxCell>
        <mxCell id="l0F_Z9eBLeVLv1C7WEuF-9" value="" style="shape=cylinder3;whiteSpace=wrap;html=1;boundedLbl=1;backgroundOutline=1;size=15;" vertex="1" parent="1">
          <mxGeometry x="230" y="790" width="60" height="80" as="geometry" />
        </mxCell>
        <mxCell id="l0F_Z9eBLeVLv1C7WEuF-14" value="BuildingBlocks&lt;br&gt;ValueObjects" style="whiteSpace=wrap;html=1;fillColor=#d5e8d4;strokeColor=#82b366;rounded=0;" vertex="1" parent="1">
          <mxGeometry x="350" y="610" width="120" height="60" as="geometry" />
        </mxCell>
        <mxCell id="_r3g6rlvjKkUjJMqAIaU-12" value="" style="edgeStyle=orthogonalEdgeStyle;rounded=0;orthogonalLoop=1;jettySize=auto;html=1;" edge="1" source="_r3g6rlvjKkUjJMqAIaU-14" target="_r3g6rlvjKkUjJMqAIaU-17" parent="1">
          <mxGeometry relative="1" as="geometry" />
        </mxCell>
        <mxCell id="_r3g6rlvjKkUjJMqAIaU-13" value="" style="edgeStyle=orthogonalEdgeStyle;rounded=0;orthogonalLoop=1;jettySize=auto;html=1;" edge="1" source="_r3g6rlvjKkUjJMqAIaU-14" target="_r3g6rlvjKkUjJMqAIaU-18" parent="1">
          <mxGeometry relative="1" as="geometry" />
        </mxCell>
        <mxCell id="_r3g6rlvjKkUjJMqAIaU-14" value="Microservice1.App" style="whiteSpace=wrap;html=1;fillColor=#d5e8d4;strokeColor=#82b366;rounded=0;" vertex="1" parent="1">
          <mxGeometry x="-340" y="320" width="120" height="60" as="geometry" />
        </mxCell>
        <mxCell id="_r3g6rlvjKkUjJMqAIaU-15" style="edgeStyle=orthogonalEdgeStyle;rounded=0;orthogonalLoop=1;jettySize=auto;html=1;" edge="1" source="_r3g6rlvjKkUjJMqAIaU-17" target="_r3g6rlvjKkUjJMqAIaU-20" parent="1">
          <mxGeometry relative="1" as="geometry" />
        </mxCell>
        <mxCell id="_r3g6rlvjKkUjJMqAIaU-16" value="" style="edgeStyle=orthogonalEdgeStyle;rounded=0;orthogonalLoop=1;jettySize=auto;html=1;" edge="1" source="_r3g6rlvjKkUjJMqAIaU-18" target="_r3g6rlvjKkUjJMqAIaU-21" parent="1">
          <mxGeometry relative="1" as="geometry" />
        </mxCell>
        <mxCell id="_r3g6rlvjKkUjJMqAIaU-17" value="Microservice1.&lt;br&gt;Infrastructure" style="whiteSpace=wrap;html=1;fillColor=#d5e8d4;strokeColor=#82b366;rounded=0;" vertex="1" parent="1">
          <mxGeometry x="-220" y="440" width="120" height="60" as="geometry" />
        </mxCell>
        <mxCell id="_r3g6rlvjKkUjJMqAIaU-18" value="Microservice1.&lt;br&gt;Domain" style="whiteSpace=wrap;html=1;fillColor=#d5e8d4;strokeColor=#82b366;rounded=0;" vertex="1" parent="1">
          <mxGeometry x="-380" y="440" width="120" height="60" as="geometry" />
        </mxCell>
        <mxCell id="_r3g6rlvjKkUjJMqAIaU-19" value="" style="endArrow=classic;html=1;rounded=0;entryX=1;entryY=0.5;entryDx=0;entryDy=0;" edge="1" source="_r3g6rlvjKkUjJMqAIaU-17" target="_r3g6rlvjKkUjJMqAIaU-18" parent="1">
          <mxGeometry width="50" height="50" relative="1" as="geometry">
            <mxPoint x="-60" y="410" as="sourcePoint" />
            <mxPoint x="-10" y="360" as="targetPoint" />
          </mxGeometry>
        </mxCell>
        <mxCell id="_r3g6rlvjKkUjJMqAIaU-20" value="" style="shape=cylinder3;whiteSpace=wrap;html=1;boundedLbl=1;backgroundOutline=1;size=15;" vertex="1" parent="1">
          <mxGeometry x="-190" y="790" width="60" height="80" as="geometry" />
        </mxCell>
        <mxCell id="_r3g6rlvjKkUjJMqAIaU-21" value="Microservice.BuildingBlocks" style="whiteSpace=wrap;html=1;fillColor=#d5e8d4;strokeColor=#82b366;rounded=0;" vertex="1" parent="1">
          <mxGeometry x="-410" y="570" width="180" height="60" as="geometry" />
        </mxCell>
        <mxCell id="_r3g6rlvjKkUjJMqAIaU-23" style="edgeStyle=orthogonalEdgeStyle;rounded=0;orthogonalLoop=1;jettySize=auto;html=1;" edge="1" parent="1" source="_r3g6rlvjKkUjJMqAIaU-22" target="_r3g6rlvjKkUjJMqAIaU-14">
          <mxGeometry relative="1" as="geometry" />
        </mxCell>
        <mxCell id="_r3g6rlvjKkUjJMqAIaU-22" value="WebApi&lt;br&gt;(REPR Pattern?)" style="rounded=0;whiteSpace=wrap;html=1;fillColor=#d5e8d4;strokeColor=#82b366;" vertex="1" parent="1">
          <mxGeometry x="-425" y="230" width="290" height="50" as="geometry" />
        </mxCell>
      </root>
    </mxGraphModel>
  </diagram>
  <diagram id="csW8x78Vscw6fahilI_U" name="Page-2">
    <mxGraphModel grid="1" page="1" gridSize="10" guides="1" tooltips="1" connect="1" arrows="1" fold="1" pageScale="1" pageWidth="850" pageHeight="1100" math="0" shadow="0">
      <root>
        <mxCell id="0" />
        <mxCell id="1" parent="0" />
      </root>
    </mxGraphModel>
  </diagram>
</mxfile>
